<svg width="665" height="596" viewBox="0 0 665 596" fill="none" xmlns="http://www.w3.org/2000/svg">
<path fill-rule="evenodd" clip-rule="evenodd" d="M341.206 25.0358C409.86 24.0639 479.898 -19.5027 541.625 10.5647C606.125 41.983 651.529 111.023 663.095 181.829C674.053 248.918 627.678 308.365 600.442 370.648C576.351 425.738 559.145 484.441 513.598 523.694C465.403 565.228 403.892 604.936 341.206 594.055C279.909 583.416 260.102 503.652 207.425 470.551C148.147 433.303 55.4177 450.754 18.4967 391.272C-18.6553 331.418 7.96766 252.21 30.4599 185.45C52.7488 119.293 82.8362 48.2045 144.869 16.1819C204.543 -14.6229 274.057 25.9865 341.206 25.0358Z" fill="#EBACBC" fill-opacity="0.5"/>
</svg>
