<svg width="60" height="60" viewBox="0 0 60 60" fill="none" xmlns="http://www.w3.org/2000/svg">
<rect width="60" height="60" rx="20" fill="#212135"/>
<path d="M20 37C20 37.9693 20.1178 38.618 20.3433 39.0791C20.5502 39.5023 20.8868 39.8473 21.5169 40.1337C22.1796 40.4349 23.1455 40.6599 24.5602 40.8028C25.9654 40.9448 27.7453 41 30 41C32.2547 41 34.0346 40.9448 35.4398 40.8028C36.8545 40.6599 37.8204 40.4349 38.4831 40.1337C39.1132 39.8473 39.4498 39.5023 39.6567 39.0791C39.8822 38.618 40 37.9693 40 37C40 36.0307 39.8822 35.382 39.6567 34.9209C39.4498 34.4977 39.1132 34.1527 38.4831 33.8663C37.8204 33.5651 36.8545 33.3401 35.4398 33.1972C34.0346 33.0552 32.2547 33 30 33C27.7453 33 25.9654 33.0552 24.5602 33.1972C23.1455 33.3401 22.1796 33.5651 21.5169 33.8663C20.8868 34.1527 20.5502 34.4977 20.3433 34.9209C20.1178 35.382 20 36.0307 20 37Z" stroke="#ABAFD1" stroke-width="2" stroke-linecap="round" stroke-linejoin="round"/>
<circle cx="6" cy="6" r="5" transform="matrix(-1 0 0 1 36 18)" stroke="#ABAFD1" stroke-width="2"/>
</svg>
